<svg width="340.533" height="340.533" xmlns="http://www.w3.org/2000/svg">

 <g>
  <title>background</title>
  <rect fill="none" id="canvas_background" height="402" width="582" y="-1" x="-1"/>
 </g>
 <g>
  <title>Layer 1</title>
  <path fill="#f5d26e" id="svg_5" d="m145.768,290.197c-6.137,0 -12.25,-5.831 -13.412,-7.002c-4.194,-3.092 -115.082,-86.691 -127.269,-98.856c-4.422,-4.444 -5.203,-8.894 -5.074,-11.856c0.288,-7.089 5.768,-11.935 6.389,-12.463l123.336,-102.074c1.351,-1.474 7.617,-7.611 13.577,-7.611c2.717,0 9.031,1.243 9.031,12.691l0,52.623l174.124,0c0.486,-0.081 1.135,-0.156 1.903,-0.156c2.03,0 12.16,0.774 12.16,15.976l0,80.87c0,11.187 -7.927,14.153 -12.118,14.153l-172.403,0l0,48.23c0,13.469 -6.419,15.475 -10.244,15.475zm0,-9.746l0,4.87l0,-4.87l0,0z"/>
 </g>
</svg>