<svg width="438.536" height="438.536" xmlns="http://www.w3.org/2000/svg">

 <g>
  <title>background</title>
  <rect fill="none" id="canvas_background" height="402" width="582" y="-1" x="-1"/>
 </g>
 <g>
  <title>Layer 1</title>
  <path fill="#fe7590" id="svg_2" d="m414.41,24.123c-16.077,-16.081 -35.447,-24.123 -58.095,-24.123l-274.087,0c-22.648,0 -42.018,8.042 -58.102,24.123c-16.081,16.084 -24.123,35.453 -24.123,58.102l0,274.084c0,22.647 8.042,42.018 24.123,58.102c16.084,16.084 35.454,24.126 58.102,24.126l274.084,0c22.648,0 42.018,-8.042 58.095,-24.126c16.084,-16.084 24.126,-35.454 24.126,-58.102l0,-274.084c-0.001,-22.649 -8.043,-42.021 -24.123,-58.102zm-48.961,213.416c0,4.948 -1.811,9.236 -5.421,12.847c-3.621,3.614 -7.905,5.428 -12.854,5.428l-91.354,0l0,91.358c0,4.948 -1.817,9.232 -5.432,12.847c-3.61,3.62 -7.897,5.427 -12.847,5.427l-36.543,0c-4.948,0 -9.231,-1.807 -12.847,-5.427c-3.617,-3.614 -5.426,-7.898 -5.426,-12.847l0,-91.358l-91.362,0c-4.948,0 -9.229,-1.813 -12.847,-5.428c-3.615,-3.61 -5.424,-7.898 -5.424,-12.847l0,-36.547c0,-4.948 1.809,-9.231 5.424,-12.847c3.617,-3.617 7.898,-5.426 12.847,-5.426l91.363,0l0,-91.359c0,-4.949 1.809,-9.233 5.426,-12.847c3.616,-3.618 7.898,-5.428 12.847,-5.428l36.543,0c4.949,0 9.236,1.81 12.847,5.428c3.614,3.614 5.432,7.898 5.432,12.847l0,91.36l91.354,0c4.948,0 9.232,1.809 12.854,5.426c3.613,3.615 5.421,7.898 5.421,12.847l0,36.546l-0.001,0z"/>
 </g>
</svg>