<svg id="Capa_1" enable-background="new 0 0 512 512" height="512" viewBox="0 0 512 512" width="512" xmlns="http://www.w3.org/2000/svg"><path d="m169.942 45.079s-111.727 87.014-139.699 251.837c-1.712 10.087 7.171 18.763 17.228 16.884 26.975-5.041 76.546-10.516 122.471 4.634l17.898-36.169v-219.168z" fill="#fff7e5"/><path d="m60.243 296.916c21.419-126.208 91.945-206.794 123.815-237.627l-14.116-14.21s-111.726 87.014-139.699 251.836c-1.712 10.087 7.171 18.763 17.228 16.884 5.277-.986 11.429-1.987 18.239-2.849-4.05-3.155-6.428-8.372-5.467-14.034z" fill="#ffd4a2"/><path d="m229.171 323.135s77.745-106.948-23.433-242.582l-17.898-17.456 17.898-18.017c245.855 0 245.149 229.95 245.149 229.95l-77.606 42.709z" fill="#fff7e5"/><path d="m187.84 63.097 17.898 17.456c12.616 16.913 22.45 33.379 30 49.248v-83.503c-9.571-.794-19.558-1.219-30-1.219z" fill="#ffd4a2"/><path d="m192.306 7.5h-8.932c-7.418 0-13.432 6.014-13.432 13.432v325.721h35.796v-325.721c0-7.418-6.013-13.432-13.432-13.432z" fill="#ff748f"/><path d="m481.409 323.135c-9.244 57.672-31.523 102.558-51.732 133.245-19.771 30-53.225 48.12-89.145 48.12h-244.699c-8.717 0-17.125-3.294-23.503-9.234-24.488-22.836-35.971-50.578-41.175-74.439l224.848-74.175z" fill="#00c8de"/><path d="m205.738 297.521-35.796 7.766v41.366h35.796z" fill="#f5385d"/><path d="m72.33 495.266c6.378 5.94 14.786 9.234 23.503 9.234h30c-8.717 0-17.125-3.293-23.503-9.234-24.488-22.836-35.971-50.578-41.175-74.438-.622-2.855-1.152-6.033-1.606-9.367l-28.394 9.367c1.951 8.948 4.786 18.441 8.858 28.017.339.798.687 1.597 1.044 2.396.713 1.598 1.462 3.197 2.248 4.795.393.799.795 1.598 1.206 2.396 6.582 12.771 15.575 25.416 27.819 36.834z" fill="#00a7c3"/><path d="m484.812 294.03c-.746 10.04-1.901 19.742-3.403 29.105l-450.254 97.692c-3.204-14.717-4.02-27.941-4.02-37.632.01-9.473 6.597-17.652 15.841-19.662l417.517-90.588c13.115-2.846 25.324 7.702 24.319 21.085z" fill="#f8d070"/><path d="m59.998 414.56c-2.253-14.386-2.868-32.968-2.868-41.373.006-5.362 2.122-10.307 5.631-13.956l-19.79 4.293c-1.052.229-2.064.547-3.042.929-7.611 2.97-12.791 10.339-12.8 18.733 0 .605.003 1.225.01 1.858s.017 1.279.031 1.938c.2 9.225 1.175 20.959 3.979 33.836z" fill="#ffa83f"/><ellipse cx="205.738" cy="450.04" fill="#ffa0ab" rx="30.91" ry="24.615"/><ellipse cx="373.281" cy="450.04" fill="#ffa0ab" rx="30.91" ry="24.615"/><path d="m223.751 433.845c4.142 0 7.5-3.358 7.5-7.5v-12.636c0-4.142-3.358-7.5-7.5-7.5s-7.5 3.358-7.5 7.5v12.636c0 4.142 3.358 7.5 7.5 7.5z"/><path d="m355.265 433.845c4.142 0 7.5-3.358 7.5-7.5v-12.636c0-4.142-3.358-7.5-7.5-7.5s-7.5 3.358-7.5 7.5v12.636c0 4.142 3.358 7.5 7.5 7.5z"/><path d="m289.508 441.367c8.812 0 17.191-3.816 22.991-10.47 2.721-3.123 2.396-7.86-.726-10.582-3.123-2.721-7.86-2.396-10.582.727-2.95 3.384-7.208 5.326-11.683 5.326s-8.733-1.941-11.682-5.326c-2.722-3.123-7.459-3.448-10.582-.727s-3.448 7.459-.727 10.582c5.8 6.653 14.179 10.47 22.991 10.47z"/><path d="m41.381 356.205c-12.588 2.737-21.734 14.084-21.747 26.99 0 13.255 1.41 26.453 4.192 39.23 6.879 31.541 21.476 57.894 43.39 78.329 7.787 7.252 17.95 11.246 28.616 11.246h244.699c38.491 0 74.158-19.25 95.409-51.495 26.843-40.76 45.127-87.85 52.874-136.182 1.566-9.758 2.736-19.763 3.477-29.731 1.348-18.133-15.653-32.824-33.388-28.977l-.885.192c-1.971-29.948-14.487-124.747-93.708-182.652-3.345-2.444-8.037-1.715-10.481 1.629s-1.715 8.037 1.629 10.481c45.36 33.154 66.836 80.066 76.865 113.582 8.054 26.916 10.246 49.792 10.842 60.183l-198.909 43.157c6.414-12.652 14.563-32.654 18.552-58.329 4.092-26.334 2.939-53.223-3.428-79.921-7.746-32.482-23.265-64.719-46.142-95.858v-25.425c44.992.901 84.32 9.965 116.99 26.975 3.675 1.913 8.203.485 10.116-3.188 1.913-3.674.485-8.203-3.189-10.116-34.808-18.124-76.473-27.74-123.917-28.655v-16.738c-.001-11.542-9.391-20.932-20.933-20.932h-8.933c-11.542 0-20.932 9.39-20.932 20.932v20.594c-8.04 6.754-31.671 27.869-57.883 63.195-29.163 39.304-67.013 104.334-81.711 190.941-2.543 14.984 11.091 28.297 26 25.511 24.18-4.519 70.296-9.934 113.593 2.79v5.977zm420.702-75.931c8.087-1.755 15.87 4.931 15.249 13.199-.583 7.84-1.442 15.698-2.56 23.426 0 0-347.353 75.366-347.399 75.375-3.925.852-6.595 4.961-5.739 8.92.862 3.968 4.94 6.601 8.92 5.739l341.516-74.099c-10.351 53.106-31.876 93.938-48.656 119.417-18.466 28.021-49.45 44.749-82.883 44.749h-244.699c-6.859 0-13.391-2.565-18.388-7.219-17.936-16.726-30.425-37.978-37.191-63.253 0 0 61.293-13.299 61.306-13.302 3.928-.852 6.596-4.957 5.739-8.92-.869-3.924-4.979-6.602-8.92-5.739 0 0-61.323 13.306-61.323 13.306-1.607-9.41-2.42-19.023-2.42-28.67.006-5.996 4.091-11.07 9.931-12.34-.001 0 417.509-90.587 417.517-90.589zm-284.642-259.342c0-3.271 2.661-5.932 5.932-5.932h8.933c3.271 0 5.932 2.661 5.932 5.932v301.24l-20.796 4.512v-305.752zm-74.549 280.141c-22.947 0-43.18 2.809-56.799 5.354-4.83.903-9.281-3.397-8.457-8.256 14.162-83.441 50.582-146.154 78.641-184.07 18.149-24.525 35.243-42.137 46.165-52.421v246.693c-20.244-5.426-40.801-7.3-59.55-7.3zm110.345-196.389c15.029 23.757 25.591 47.987 31.443 72.281 5.952 24.711 7.099 49.58 3.409 73.914-5.244 34.581-18.917 58.387-23.479 65.571l-11.372 2.467v-214.233z"/></svg>